<?xml version="1.0" encoding="UTF-8"?><svg id="a" xmlns="http://www.w3.org/2000/svg" viewBox="0 0 976.15 976.15"><defs><style>.b{fill:#fff;}</style></defs><path d="M471.57,.27L84.89,763.18C31.3,684.87,0,590.12,0,488.06,0,224.06,209.63,8.99,471.57,.27Z"/><path d="M833.66,821.44c1.47,2.93,2.74,5.33,3.97,7.25-88.63,90.97-212.48,147.46-349.54,147.46s-261.45-56.74-350.14-148.03c1.11-1.82,2.28-4.02,3.61-6.68l254.98-504.37c37.82-75.65,88.28-189.14,88.28-189.14h5.6s50.43,113.5,88.25,189.14l254.98,504.37Z"/><path d="M976.15,488.06c0,102.41-31.55,197.43-85.4,275.9L503.66,.24c262.35,8.23,472.49,223.49,472.49,487.82Z"/><path class="b" d="M890.75,763.97c-15.84,23.1-33.61,44.73-53.12,64.72-1.22-1.93-2.5-4.32-3.97-7.25l-254.98-504.37c-37.82-75.65-88.25-189.14-88.25-189.14h-5.6s-50.46,113.5-88.28,189.14l-254.98,504.37c-1.33,2.66-2.5,4.86-3.61,6.68-19.48-20.05-37.25-41.79-53.07-64.94L471.57,.27c5.49-.19,10.98-.27,16.52-.27,5.22,0,10.41,.08,15.57,.24l387.09,763.72Z"/></svg>