<?xml version="1.0" encoding="UTF-8"?><svg id="a" xmlns="http://www.w3.org/2000/svg" viewBox="0 0 1080 1080"><defs><style>.b{fill:none;stroke:#000;stroke-miterlimit:10;stroke-width:59.52px;}</style></defs><path d="M555.08,48.69l-.6-1.19h-27.46l-.59,1.15L135.27,820.33c12.22,17.66,25.59,34.48,40,50.35h6.03c10.95,0,13.69-1.39,20.55-15.12l249.7-493.89c37.06-74.12,86.46-185.22,86.46-185.22h5.48s49.4,111.1,86.42,185.22l249.7,493.89c6.86,13.73,9.6,15.12,20.59,15.12h4.56c14.68-16.23,28.33-33.49,40.79-51.58L555.08,48.69Z"/><path class="b" d="M1032.02,540.48c0,103.44-31.9,199.43-86.46,278.63-12.46,18.09-26.11,35.35-40.79,51.58-90.07,99.4-220.14,161.81-364.77,161.81s-274.7-62.42-364.73-161.81c-14.4-15.87-27.78-32.7-40-50.35-55.04-79.44-87.29-175.9-87.29-279.86,0-267.2,213-484.64,478.45-491.83,4.52-.12,9.05-.2,13.57-.2,5.04,0,10.08,.08,15.08,.24,264.74,7.98,476.95,225.1,476.95,491.79Z"/></svg>