<?xml version="1.0" encoding="UTF-8"?><svg id="a" xmlns="http://www.w3.org/2000/svg" viewBox="0 0 1823 392.53"><path d="M370.25,32.55c-2.61,0-5.86-3.26-5.86-5.86V5.86c0-2.6,3.26-5.86,5.86-5.86h368.48c2.61,0,5.86,3.26,5.86,5.86V26.69c0,2.6-3.26,5.86-5.86,5.86h-166.01V385.41c0,2.6-2.6,5.21-5.21,5.21h-26.04c-2.6,0-5.21-2.6-5.21-5.21V32.55h-166.01Z"/><path d="M1219.21,241.53c17.58,35.16,41.01,87.89,41.01,87.89h2.61s23.44-52.73,41.01-87.89L1422.34,7.16c3.26-6.51,4.56-7.16,9.77-7.16h26.69c3.26,0,4.56,1.95,4.56,3.26,0,1.95-1.3,4.56-2.6,7.16l-192.71,380.2h-13.02L1062.31,10.42c-1.3-2.61-2.61-5.21-2.61-7.16,0-1.3,1.3-3.26,3.91-3.26h27.34c5.21,0,6.51,.65,9.77,7.16l118.49,234.37Z"/><path d="M953.82,150.99c-17.58-35.16-41.01-87.89-41.01-87.89h-2.61s-23.44,52.73-41.01,87.89l-118.49,234.37c-3.26,6.51-4.56,7.16-9.77,7.16h-26.69c-3.26,0-4.56-1.95-4.56-3.26,0-1.95,1.3-4.56,2.6-7.16L904.99,1.91h13.02l192.7,380.2c1.3,2.61,2.61,5.21,2.61,7.16,0,1.3-1.3,3.26-3.91,3.26h-27.34c-5.21,0-6.51-.65-9.77-7.16l-118.49-234.37Z"/><path d="M1663.5,150.99c-17.58-35.16-41.01-87.89-41.01-87.89h-2.61s-23.44,52.73-41.01,87.89l-118.49,234.37c-3.26,6.51-4.56,7.16-9.77,7.16h-26.69c-3.26,0-4.56-1.95-4.56-3.26,0-1.95,1.3-4.56,2.6-7.16L1614.67,1.91h13.02l192.7,380.2c1.3,2.61,2.61,5.21,2.61,7.16,0,1.3-1.3,3.26-3.91,3.26h-27.34c-5.21,0-6.51-.65-9.77-7.16l-118.49-234.37Z"/><path d="M244.14,150.99c-17.58-35.16-41.01-87.89-41.01-87.89h-2.61s-23.44,52.73-41.01,87.89L41.01,385.37c-3.26,6.51-4.56,7.16-9.77,7.16H4.56c-3.26,0-4.56-1.95-4.56-3.26,0-1.95,1.3-4.56,2.6-7.16L195.31,1.91h13.02l192.7,380.2c1.3,2.61,2.61,5.21,2.61,7.16,0,1.3-1.3,3.26-3.91,3.26h-27.34c-5.21,0-6.51-.65-9.77-7.16l-118.49-234.37Z"/></svg>